:version 1.10
:name ASF
:units
  mass 1
  length 1
  angle deg
:documentation
  ASF file generated by Kaydara
:root
  axis xyz
  order  tx ty tz rx ry rz
  position 0 0 0
  orientation 0 0 0
:bonedata
  begin
    id 1
    name RightUpLegDummy
    direction -0.718183 -0.695806 0.00816078
    length 4.904
    axis 0 0 0 xyz
  end
  begin
    id 2
    name RightUpLeg
    direction 3.53373e-006 -0.995788 0.0916898
    length 17.4976
    axis -3.49089 -0.000906625 0.000286804 xyz
    dof rx ry rz
  end
  begin
    id 3
    name RightLeg
    direction 0.00371092 -0.995096 -0.0988419
    length 16.5821
    axis 3.68512 0.0193738 -0.131023 xyz
    dof rx ry rz
  end
  begin
    id 4
    name RightFoot
    direction 0.00079151 -0.46099 0.887405
    length 3.77069
    axis 4.81691e-005 -0.120479 -0.188788 xyz
    dof rx ry rz
  end
  begin
    id 5
    name RightToes
    direction 0 0 0
    length 0
    axis 0 0 0 xyz
    dof rx ry rz
  end
  begin
    id 6
    name SpineDummy
    direction 8.3039e-015 1 4.57515e-016
    length 4.6813
    axis 0 0 0 xyz
  end
  begin
    id 7
    name Spine
    direction -3.15643e-008 0.999988 0.00495137
    length 10.1015
    axis -0.001389 0.000121418 2.40972e-006 xyz
    dof rx ry rz
  end
  begin
    id 8
    name Spine1
    direction 0 0 0
    length 0
    axis -0.001389 0.000121451 1.30017e-006 xyz
    dof rx ry rz
  end
  begin
    id 9
    name HEadDummy
    direction -1.99912e-008 0.999999 0.00127422
    length 3.43865
    axis -0.001389 0.000121451 1.30017e-006 xyz
  end
  begin
    id 10
    name HEad
    direction 0 0 0
    length 0
    axis 0 0 0 xyz
    dof rx ry rz
  end
  begin
    id 11
    name LeftShoulder1Dummy
    direction 0.998891 -0.0402509 -0.0244456
    length 3.5433
    axis -0.001389 0.000121451 1.30017e-006 xyz
  end
  begin
    id 12
    name LeftShoulder1
    direction 0.99951 -0.000327763 0.0313091
    length 4.05031
    axis -0.001389 0.000121451 1.30017e-006 xyz
    dof rx ry rz
  end
  begin
    id 13
    name LeftArm
    direction 0.998561 -0.00100056 -0.0536182
    length 10.3537
    axis -23.1894 0.134784 0.967509 xyz
    dof rx ry rz
  end
  begin
    id 14
    name LeftForeArm
    direction 0.998903 0.00866432 0.046012
    length 8.70632
    axis -9.91835 -0.06569 -0.177794 xyz
    dof rx ry rz
  end
  begin
    id 15
    name LeftHand
    direction 0 0 0
    length 0
    axis 0 0 0 xyz
    dof rx ry rz
  end
  begin
    id 16
    name RightShoulderDummy
    direction -0.998891 -0.0402509 -0.0244414
    length 3.5433
    axis -0.001389 0.000121451 1.30017e-006 xyz
  end
  begin
    id 17
    name RightShoulder
    direction -0.99951 -0.000327807 0.0313133
    length 4.05031
    axis 0.215806 0.000203643 -0.0068026 xyz
    dof rx ry rz
  end
  begin
    id 18
    name RightArm
    direction -0.998573 -0.000999564 -0.053403
    length 10.3947
    axis -23.2009 -0.134239 -0.964101 xyz
    dof rx ry rz
  end
  begin
    id 19
    name RightForeArm
    direction -0.998898 0.00868028 0.0461306
    length 8.68355
    axis -9.92322 0.0658061 0.178868 xyz
    dof rx ry rz
  end
  begin
    id 20
    name RightHand
    direction 0 0 0
    length 0
    axis 0 0 0 xyz
    dof rx ry rz
  end
  begin
    id 21
    name LeftUpLegDummy
    direction 0.718183 -0.695806 0.00816078
    length 4.904
    axis 0 0 0 xyz
  end
  begin
    id 22
    name LeftUpLeg
    direction -6.81752e-006 -0.995793 0.0916337
    length 17.4976
    axis -3.48766 0.00143442 -0.000524262 xyz
    dof rx ry rz
  end
  begin
    id 23
    name LeftLeg
    direction -0.00601358 -0.995091 -0.0987824
    length 16.5821
    axis 3.68178 -0.00654042 -0.000285133 xyz
    dof rx ry rz
  end
  begin
    id 24
    name LeftFoot
    direction -0.00417578 -0.460984 0.887399
    length 3.77069
    axis 1.87233e-006 4.66016e-005 -8.6538e-006 xyz
    dof rx ry rz
  end
  begin
    id 25
    name LeftToes
    direction 0 0 0
    length 0
    axis 0 0 0 xyz
    dof rx ry rz
  end
:hierarchy
  begin
    root RightUpLegDummy SpineDummy LeftUpLegDummy
    RightUpLegDummy RightUpLeg
    RightUpLeg RightLeg
    RightLeg RightFoot
    RightFoot RightToes
    SpineDummy Spine
    Spine Spine1
    Spine1 HEadDummy LeftShoulder1Dummy RightShoulderDummy
    HEadDummy HEad
    LeftShoulder1Dummy LeftShoulder1
    LeftShoulder1 LeftArm
    LeftArm LeftForeArm
    LeftForeArm LeftHand
    RightShoulderDummy RightShoulder
    RightShoulder RightArm
    RightArm RightForeArm
    RightForeArm RightHand
    LeftUpLegDummy LeftUpLeg
    LeftUpLeg LeftLeg
    LeftLeg LeftFoot
    LeftFoot LeftToes
  end

:SAMPLES-PER-SECOND 30
:FULLY-SPECIFIED
:DEGREES
60
root  12.4918 40.6561 8.87414 172.247 71.2783 170.559
RightUpLeg  -4.68385 -14.8082 -11.1233
RightLeg  11.6358 -20.0786 0.881531
RightFoot  -2.24336 -0.132001 1.46532
RightToes  0.000481921 0.542163 -0.142578
Spine  13.6462 0.310106 3.02402
Spine1  -0.680622 0.580828 0.347384
HEad  9.85369 -22.8576 3.97104
LeftShoulder1  5.55243 -8.73591 -39.1427
LeftArm  -2.06259 18.6525 -31.6652
LeftForeArm  -178.504 -55.0168 -166.593
LeftHand  -0.25398 0.0180481 5.50724
RightShoulder  2.34762 3.44275 27.8636
RightArm  -28.4209 -20.638 41.8143
RightForeArm  -178.153 39.5894 172.38
RightHand  -0.114872 -6.17065 7.76583
LeftUpLeg  -6.40628 2.96822 1.74242
LeftLeg  0.584187 3.28084 -3.66986
LeftFoot  5.38023 0.335786 -2.50779
LeftToes  1.06247e-005 4.65869e-005 -8.65511e-006
61
root  12.6381 40.6406 8.90754 172.792 71.3337 171.794
RightUpLeg  -3.69124 -15.1687 -10.9245
RightLeg  11.6046 -19.6322 1.11365
RightFoot  -2.60493 -0.140505 1.60172
RightToes  0.000481921 0.542163 -0.142578
Spine  13.205 -0.0703668 -0.0368349
Spine1  -0.417545 -0.830364 4.27771
HEad  11.7129 -19.807 2.06539
LeftShoulder1  5.24221 -7.81354 -40.0232
LeftArm  -2.85173 17.3133 -33.1408
LeftForeArm  -177.096 -54.6351 -166.881
LeftHand  -0.25398 0.0180481 5.50724
RightShoulder  2.71954 3.89531 30.819
RightArm  -22.728 -23.4741 46.8757
RightForeArm  175.376 40.1147 171.635
RightHand  -0.0131825 -4.72344 3.98467
LeftUpLeg  -6.1768 3.24323 2.18477
LeftLeg  1.91086 2.93956 -3.3883
LeftFoot  4.68531 0.290758 -2.26473
LeftToes  1.06247e-005 4.65869e-005 -8.65511e-006
62
root  12.7447 40.6474 8.7929 172.371 73.5333 172.12
RightUpLeg  -2.9895 -14.7136 -10.6137
RightLeg  11.0417 -17.906 1.35098
RightFoot  -2.43655 -0.142792 1.62163
RightToes  0.000481921 0.542163 -0.142578
Spine  11.8833 -0.662274 -1.04775
Spine1  0.548145 -1.56517 4.3417
HEad  14.8233 -16.3318 1.91147
LeftShoulder1  5.17444 -7.64712 -40.1062
LeftArm  -4.5161 17.0556 -34.5778
LeftForeArm  -178.018 -53.7939 -167.204
LeftHand  -0.25398 0.0180481 5.50724
RightShoulder  2.68601 4.18885 28.9203
RightArm  -18.0034 -21.2409 46.8561
RightForeArm  166.889 47.8892 168.496
RightHand  -0.0391478 -5.48642 0.513806
LeftUpLeg  -5.39215 3.75449 2.65591
LeftLeg  2.89804 4.49481 -3.1993
LeftFoot  3.88422 0.204251 -1.70566
LeftToes  1.06247e-005 4.65869e-005 -8.65511e-006
63
root  12.8263 40.6661 8.63748 168.618 77.4884 169.072
RightUpLeg  -2.91976 -13.8023 -10.5057
RightLeg  10.6988 -14.8032 1.22826
RightFoot  -2.15432 -0.136856 1.51896
RightToes  0.000481921 0.542163 -0.142578
Spine  10.6055 -0.656196 0.0216111
Spine1  1.25812 -0.738959 0.545502
HEad  18.2031 -14.3598 3.56566
LeftShoulder1  5.41894 -8.37203 -39.3883
LeftArm  -5.33617 16.4335 -34.7356
LeftForeArm  -179.148 -53.4207 -167.29
LeftHand  -0.25398 0.0180481 5.50724
RightShoulder  2.50165 4.22687 26.2768
RightArm  -13.9243 -15.7269 44.43
RightForeArm  166.229 56.259 164.754
RightHand  -0.0552177 -6.7149 0.599389
LeftUpLeg  -3.8052 4.41289 2.93001
LeftLeg  2.90498 7.67537 -3.42956
LeftFoot  3.26389 0.170899 -1.48972
LeftToes  1.06247e-005 4.65869e-005 -8.65511e-006
64
root  12.8836 40.6757 8.49712 160.553 81.4661 161.7
RightUpLeg  -3.03127 -13.0542 -10.5968
RightLeg  10.585 -11.3634 1.09444
RightFoot  -1.95827 -0.135822 1.49288
RightToes  0.000481921 0.542163 -0.142578
Spine  10.1248 -0.099457 1.83865
Spine1  1.41118 0.792386 -3.58343
HEad  20.1335 -13.4472 4.84618
LeftShoulder1  5.77786 -9.31283 -38.869
LeftArm  -5.02397 15.1305 -33.9365
LeftForeArm  -179.154 -53.8181 -167.107
LeftHand  -0.25398 0.0180481 5.50724
RightShoulder  2.33267 3.95909 25.1335
RightArm  -10.6189 -9.78126 41.9984
RightForeArm  168.489 61.1531 161.927
RightHand  -0.049158 -6.01926 0.186107
LeftUpLeg  -2.01365 5.07543 3.08186
LeftLeg  2.50946 10.9609 -3.92012
LeftFoot  2.73143 0.176035 -1.56073
LeftToes  1.06247e-005 4.65869e-005 -8.65511e-006
65
root  12.9253 40.6719 8.36392 149.329 84.398 150.977
RightUpLeg  -3.08421 -12.6202 -10.5714
RightLeg  10.3743 -8.63113 1.20268
RightFoot  -1.73549 -0.149072 1.68301
RightToes  0.000481921 0.542163 -0.142578
Spine  9.98968 0.262131 3.17151
Spine1  1.60032 1.63971 -5.51054
HEad  20.1722 -11.8021 4.25995
LeftShoulder1  5.95258 -9.68566 -38.9247
LeftArm  -4.57058 14.0147 -33.4109
LeftForeArm  -178.833 -54.4629 -166.832
LeftHand  -0.25398 0.0180481 5.50724
RightShoulder  2.2414 3.89556 24.1297
RightArm  -8.03122 -5.08847 41.2801
RightForeArm  164.01 63.108 159.974
RightHand  -0.0636634 -4.54624 -3.87871
LeftUpLeg  -0.898313 5.60421 3.29385
LeftLeg  2.60379 13.4648 -4.16506
LeftFoot  2.12161 0.169897 -1.54915
LeftToes  1.06247e-005 4.65869e-005 -8.65511e-006
66
root  12.9781 40.6686 8.25595 136.124 86.2481 137.898
RightUpLeg  -3.20751 -12.2319 -10.3271
RightLeg  10.0391 -7.01335 1.3593
RightFoot  -1.47335 -0.166697 1.93732
RightToes  0.000481921 0.542163 -0.142578
Spine  9.6105 0.181963 3.52884
Spine1  1.84919 1.56372 -5.50181
HEad  19.3101 -9.32669 2.89377
LeftShoulder1  5.88851 -9.55105 -38.8985
LeftArm  -4.38272 13.8619 -33.7663
LeftForeArm  -178.742 -54.7679 -166.694
LeftHand  -0.25398 0.0180481 5.50724
RightShoulder  2.2227 4.2137 22.5514
RightArm  -5.90798 -2.51661 42.6052
RightForeArm  157.039 63.3586 159.046
RightHand  -0.184658 -3.02675 -8.32399
LeftUpLeg  -0.583972 5.93247 3.53732
LeftLeg  3.09927 15.1754 -4.07424
LeftFoot  1.56978 0.155709 -1.45343
LeftToes  1.06247e-005 4.65869e-005 -8.65511e-006
67
root  13.0567 40.6753 8.21309 124.658 87.0932 126.316
RightUpLeg  -3.32 -11.7862 -10.0632
RightLeg  9.73884 -6.48947 1.40017
RightFoot  -1.34429 -0.171966 1.99796
RightToes  0.000481921 0.542163 -0.142578
Spine  9.04192 -0.0296972 2.81154
Spine1  1.83451 1.06259 -4.45509
HEad  18.5224 -7.35166 2.316
LeftShoulder1  5.84482 -9.54722 -38.5929
LeftArm  -4.07729 14.3523 -34.435
LeftForeArm  -178.573 -54.6999 -166.739
LeftHand  -0.25398 0.0180481 5.50724
RightShoulder  2.2733 4.47036 22.2399
RightArm  -4.37134 -2.81521 44.0778
RightForeArm  154.97 61.8262 160.077
RightHand  -0.328922 -1.71953 -10.2078
LeftUpLeg  -0.533613 6.04829 3.69254
LeftLeg  3.32554 16.0824 -3.94699
LeftFoot  1.28239 0.157624 -1.46235
LeftToes  1.06247e-005 4.65869e-005 -8.65511e-006
68
root  13.1449 40.684 8.22717 123.616 87.2167 125.207
RightUpLeg  -3.17743 -11.5114 -9.92597
RightLeg  9.54993 -6.65951 1.40286
RightFoot  -1.42869 -0.167205 1.90276
RightToes  0.000481921 0.542163 -0.142578
Spine  8.48359 -0.210272 1.36191
Spine1  1.84093 0.42218 -2.6806
HEad  17.973 -6.33083 2.43118
LeftShoulder1  5.95858 -9.81326 -38.5549
LeftArm  -3.47467 14.6182 -34.6617
LeftForeArm  -178.412 -54.6174 -166.791
LeftHand  -0.25398 0.0180481 5.50724
RightShoulder  2.43289 4.5365 24.0874
RightArm  -3.66237 -5.51803 44.6453
RightForeArm  157.742 59.1251 162.282
RightHand  -0.35049 -1.30749 -9.7549
LeftUpLeg  -0.406814 6.02631 3.77893
LeftLeg  3.24181 16.1762 -3.87063
LeftFoot  1.16734 0.170123 -1.59285
LeftToes  1.06247e-005 4.65869e-005 -8.65511e-006
69
root  13.2196 40.6852 8.25545 129.624 87.048 131.268
RightUpLeg  -2.86501 -11.5714 -9.92391
RightLeg  9.4929 -6.88161 1.45333
RightFoot  -1.64002 -0.169762 1.92256
RightToes  0.000481921 0.542163 -0.142578
Spine  7.97338 -0.457072 -0.212345
Spine1  2.24732 -0.343817 -0.583849
HEad  17.4448 -5.53774 2.35266
LeftShoulder1  6.02218 -9.83986 -38.9271
LeftArm  -2.84259 14.3155 -34.4801
LeftForeArm  -178.613 -54.7603 -166.707
LeftHand  -0.25398 0.0180481 5.50724
RightShoulder  2.67737 4.75553 26.3421
RightArm  -4.07111 -9.48072 45.9591
RightForeArm  161.413 56.4232 164.243
RightHand  -0.284999 -1.65922 -8.56353
LeftUpLeg  -0.238818 5.97455 3.83222
LeftLeg  3.16665 15.8689 -3.78843
LeftFoot  1.06795 0.182249 -1.7471
LeftToes  1.06247e-005 4.65869e-005 -8.65511e-006
70
root  13.2753 40.6803 8.27845 132.701 86.836 134.39
RightUpLeg  -2.70103 -11.8662 -10.0321
RightLeg  9.62683 -6.78991 1.4842
RightFoot  -1.89408 -0.183521 2.1194
RightToes  0.000481921 0.542163 -0.142578
Spine  7.54165 -0.77499 -1.64256
Spine1  2.82588 -1.15207 1.35545
HEad  17.0193 -4.43354 1.86458
LeftShoulder1  5.86377 -9.37381 -39.3057
LeftArm  -2.44549 13.8683 -34.347
LeftForeArm  -178.807 -55.0185 -166.568
LeftHand  -0.25398 0.0180481 5.50724
RightShoulder  2.90649 5.1323 27.6315
RightArm  -5.33379 -13.7005 48.9712
RightForeArm  163.442 54.2019 165.58
RightHand  -0.236015 -2.01136 -7.7286
LeftUpLeg  -0.108495 5.93655 3.80863
LeftLeg  3.11957 15.6458 -3.76778
LeftFoot  0.999425 0.190452 -1.87042
LeftToes  1.06247e-005 4.65869e-005 -8.65511e-006
